<svg xmlns="http://www.w3.org/2000/svg" shape-rendering="geometricPrecision" text-rendering="geometricPrecision" image-rendering="optimizeQuality" fill-rule="evenodd" clip-rule="evenodd" viewBox="0 0 512 443.51"><path fill-rule="nonzero" d="m302.57 401.86-115.03 24.73H504.3c4.25 0 7.7 3.79 7.7 8.46 0 4.67-3.45 8.46-7.7 8.46H117.02a7.1 7.1 0 0 1-3.69-1.04c-2.7.23-5.27-.85-7-2.78L6.96 339.82a23.33 23.33 0 0 1-5.15-7.58C.6 329.43 0 326.42 0 323.23c0-3.18.6-6.19 1.78-9l.39-.8c1.17-2.52 2.77-4.79 4.77-6.8L307.61 6.93c2.07-2.25 4.47-3.95 7.17-5.12C317.54.59 320.53 0 323.74 0c3.12 0 6.11.58 8.96 1.75 2.81 1.15 5.36 2.86 7.64 5.15l162.98 163.48a22.94 22.94 0 0 1 5.14 7.58c1.22 2.81 1.82 5.81 1.82 9 0 3.18-.6 6.19-1.78 9-1.17 2.76-2.9 5.29-5.17 7.56L310.21 396.15a9.222 9.222 0 0 1-1.96 2.91 8.985 8.985 0 0 1-4.5 2.46c-.39.14-.78.26-1.18.34zm-173.1-193.5 172.34 172.35 189.57-189.09c.68-.68 1.19-1.42 1.52-2.2.3-.72.46-1.55.46-2.46 0-.92-.16-1.74-.46-2.46-.27-.71-.79-1.44-1.53-2.18L328.38 18.79c-.67-.67-1.37-1.15-2.09-1.45-.69-.28-1.54-.42-2.55-.42-.92 0-1.68.13-2.29.39-.48.18-.94.51-1.37.96l-.51.55-190.1 189.54zm156.06 179.9-167.99-168-98.63 98.34c-.61.61-1.08 1.21-1.39 1.8l-.14.38c-.31.71-.46 1.54-.46 2.45 0 .92.15 1.75.46 2.46.27.72.79 1.45 1.53 2.18l96.43 96.97 170.19-36.58z"/></svg>